# xmcd CD database file
#
# Track frame offsets:
#	150
#	18075
#	39225
#	53430
#	64697
#	79972
#	101548
#	114973
#	142172
#	157922
#	173539
#	188119
#
# Disc length: 2984 seconds
#
# Revision: 0
# Processed by: cddbd v1.5.2PL0 Copyright (c) Steve Scherf et al.
# Submitted via: CDex 1.70beta2
#
DISCID=880ba60c
DTITLE=Mid Life Crisis - Cdn.- N.S. - Rolling Home
DYEAR=1900
DGENRE=Country
TTITLE0=Rolling Home
TTITLE1=Sargasso Sea
TTITLE2=Paddy Lay Back
TTITLE3=Chemical Workers' Song
TTITLE4=Roll Highway
TTITLE5=Polkasa - Mursheen Durkin
TTITLE6=Just Be Casual
TTITLE7=Rields of Athenery - '98 March
TTITLE8=Way Up High
TTITLE9=The Old Polina
TTITLE10=A Ghostly Love
TTITLE11=Balled of William Wallace
EXTD=
EXTT0=
EXTT1=
EXTT2=
EXTT3=
EXTT4=
EXTT5=
EXTT6=
EXTT7=
EXTT8=
EXTT9=
EXTT10=
EXTT11=
PLAYORDER=
